<svg xmlns="http://www.w3.org/2000/svg" width="19" height="20" fill="currentColor" viewBox="0 0 19 20">
  <path d="M12 7.143V.286A.286.286 0 0 0 11.714 0H7.143a.286.286 0 0 0-.286.286v19.428a.286.286 0 0 0 .286.286h4.571a.286.286 0 0 0 .286-.286V7.143Zm-6.857 5.714a.286.286 0 0 0-.286-.286H.286a.285.285 0 0 0-.286.286v6.857A.286.286 0 0 0 .286 20h4.571a.286.286 0 0 0 .286-.286v-6.857Zm13.428-6H14a.286.286 0 0 0-.286.286v12.571A.286.286 0 0 0 14 20h4.571a.286.286 0 0 0 .286-.286V7.143a.286.286 0 0 0-.286-.286Z"/>
</svg>
