<svg xmlns="http://www.w3.org/2000/svg" width="10" height="11" fill="currentColor" viewBox="0 0 10 11">
  <path d="M5 0c-.642 0-1.257.264-1.71.733a2.548 2.548 0 0 0-.71 1.77c0 .664.256 1.3.71 1.77.453.47 1.068.733 1.71.733.642 0 1.257-.263 1.71-.733.454-.47.71-1.106.71-1.77 0-.664-.256-1.3-.71-1.77A2.379 2.379 0 0 0 5 0ZM2.42 6.341a2.38 2.38 0 0 0-1.711.733A2.548 2.548 0 0 0 0 8.844v.793c0 .504.352.932.832 1.013 2.76.467 5.576.467 8.336 0a.987.987 0 0 0 .595-.348A1.05 1.05 0 0 0 10 9.637v-.793c0-.663-.255-1.3-.709-1.77a2.379 2.379 0 0 0-1.71-.733h-.22c-.12 0-.237.02-.35.058l-.56.189a4.529 4.529 0 0 1-2.903 0l-.558-.19a1.126 1.126 0 0 0-.35-.057h-.22Z"/>
  <path d="M5 0c-.642 0-1.257.264-1.71.733a2.548 2.548 0 0 0-.71 1.77c0 .664.256 1.3.71 1.77.453.47 1.068.733 1.71.733.642 0 1.257-.263 1.71-.733.454-.47.71-1.106.71-1.77 0-.664-.256-1.3-.71-1.77A2.379 2.379 0 0 0 5 0ZM2.42 6.341a2.38 2.38 0 0 0-1.711.733A2.548 2.548 0 0 0 0 8.844v.793c0 .504.352.932.832 1.013 2.76.467 5.576.467 8.336 0a.987.987 0 0 0 .595-.348A1.05 1.05 0 0 0 10 9.637v-.793c0-.663-.255-1.3-.709-1.77a2.379 2.379 0 0 0-1.71-.733h-.22c-.12 0-.237.02-.35.058l-.56.189a4.529 4.529 0 0 1-2.903 0l-.558-.19a1.126 1.126 0 0 0-.35-.057h-.22Z"/>
</svg>
